<?xml version="1.0" encoding="utf-8"?>
<!-- Generator: Adobe Illustrator 22.1.0, SVG Export Plug-In . SVG Version: 6.00 Build 0)  -->
<svg version="1.1" id="Capa_1" xmlns="http://www.w3.org/2000/svg" xmlns:xlink="http://www.w3.org/1999/xlink" x="0px" y="0px"
	 viewBox="0 0 640 480" style="enable-background:new 0 0 640 480;" xml:space="preserve">
<style type="text/css">
	.st0{fill:url(#SVGID_1_);}
	.st1{fill:#FFFFFF;}
	.st2{fill:url(#SVGID_2_);}
	.st3{fill:url(#SVGID_3_);}
	.st4{fill:url(#SVGID_4_);}
	.st5{fill:url(#SVGID_5_);}
	.st6{fill:url(#SVGID_6_);}
	.st7{fill:url(#SVGID_7_);}
</style>
<g>
	<linearGradient id="SVGID_1_" gradientUnits="userSpaceOnUse" x1="128.4787" y1="-27.6667" x2="128.4787" y2="-364.3333">
		<stop  offset="0" style="stop-color:#FFFFFF;stop-opacity:0"/>
		<stop  offset="0.1464" style="stop-color:#FFFFFF;stop-opacity:0.1464"/>
		<stop  offset="1" style="stop-color:#FFFFFF"/>
	</linearGradient>
	<path class="st0" d="M245.8-145v15.3h-66.3v-30.6h34.4c-3.1-17.3-11.3-33.3-24.1-46c-16.4-16.4-38.2-25.4-61.3-25.4
		s-45,9-61.3,25.4c-16.4,16.4-25.4,38.2-25.4,61.3v86.7h71.4V-196h30.6v168.3H11.2V-145c0-31.4,12.2-60.8,34.4-83
		c18.7-18.7,42.6-30.3,68.5-33.5c3.1-25.9,14.8-49.8,33.5-68.5c0.4-0.4,0.9-0.9,1.3-1.3c-6.7-1.6-13.5-2.4-20.4-2.4
		c-23.2,0-45,9-61.3,25.4C50.8-292,41.8-270.2,41.8-247H11.2c0-31.4,12.2-60.8,34.4-83c22.1-22.2,51.6-34.4,83-34.4
		c20.6,0,40.9,5.4,58.7,15.7l22.9,13.2l-22.9,13.2c-6.5,3.8-12.6,8.4-18,13.8c-13,13-21.4,29.4-24.3,47.2
		c25.1,3.5,48.3,15,66.5,33.2C233.6-205.8,245.8-176.3,245.8-145z"/>
</g>
<path class="st1" d="M298.3-255.6v13.4h23.4v9.4h-23.4v18.4h-11.7V-265h38.2v9.4L298.3-255.6L298.3-255.6z"/>
<path class="st1" d="M371.8-223.8v9.4h-39.1V-265h38.2v9.4h-26.5v11h23.5v9.1h-23.5v11.7L371.8-223.8L371.8-223.8z"/>
<path class="st1" d="M381.2-265h11.7v41h25.3v9.5h-37L381.2-265L381.2-265z"/>
<path class="st1" d="M424.8-265h11.7v50.6h-11.7V-265z"/>
<path class="st1" d="M482-262.8c3.3,1.5,5.8,3.6,7.6,6.3c1.8,2.8,2.7,6,2.7,9.7c0,3.7-0.9,7-2.7,9.7s-4.3,4.9-7.6,6.3
	c-3.3,1.5-7.2,2.2-11.7,2.2h-10.2v13.9h-11.7V-265h21.9C474.8-265,478.7-264.3,482-262.8z M477.7-240.2c1.8-1.5,2.8-3.7,2.8-6.5
	c0-2.8-0.9-5-2.8-6.5c-1.8-1.5-4.5-2.3-8-2.3h-9.5v17.6h9.5C473.2-237.9,475.9-238.7,477.7-240.2z"/>
<path class="st1" d="M539.7-223.8v9.4h-39.1V-265h38.2v9.4h-26.6v11h23.5v9.1h-23.5v11.7L539.7-223.8L539.7-223.8z"/>
<linearGradient id="SVGID_2_" gradientUnits="userSpaceOnUse" x1="307.532" y1="-126.957" x2="307.532" y2="-179.148">
	<stop  offset="0" style="stop-color:#FFFFFF;stop-opacity:0"/>
	<stop  offset="0.1464" style="stop-color:#FFFFFF;stop-opacity:0.1464"/>
	<stop  offset="1" style="stop-color:#FFFFFF"/>
</linearGradient>
<path class="st2" d="M296.8-130.3c-4.2-2.2-7.5-5.3-9.8-9.3c-2.4-4-3.6-8.5-3.6-13.4c0-5,1.2-9.5,3.6-13.4c2.4-4,5.7-7.1,9.8-9.3
	c4.2-2.2,8.8-3.3,14-3.3c4.4,0,8.3,0.8,11.9,2.3c3.6,1.6,6.5,3.8,8.9,6.6l-7.5,6.9c-3.4-3.9-7.7-5.9-12.7-5.9
	c-3.1,0-5.9,0.7-8.4,2.1c-2.5,1.4-4.3,3.3-5.8,5.8c-1.4,2.5-2.1,5.3-2.1,8.4c0,3.1,0.7,5.9,2.1,8.4c1.4,2.5,3.3,4.3,5.8,5.8
	c2.5,1.4,5.3,2.1,8.4,2.1c5,0,9.3-2,12.7-6l7.5,6.9c-2.4,2.9-5.4,5.2-9,6.7c-3.6,1.6-7.5,2.3-11.9,2.3
	C305.6-127,301-128.1,296.8-130.3z"/>
<linearGradient id="SVGID_3_" gradientUnits="userSpaceOnUse" x1="360.1497" y1="-127.8814" x2="360.1497" y2="-178.4371">
	<stop  offset="0" style="stop-color:#FFFFFF;stop-opacity:0"/>
	<stop  offset="0.1464" style="stop-color:#FFFFFF;stop-opacity:0.1464"/>
	<stop  offset="1" style="stop-color:#FFFFFF"/>
</linearGradient>
<path class="st3" d="M371.8-138.7h-23.5l-4.5,10.8h-12l22.5-50.6h11.5l22.6,50.6h-12.3L371.8-138.7z M368.1-147.6l-8-19.3l-8,19.3
	H368.1z"/>
<linearGradient id="SVGID_4_" gradientUnits="userSpaceOnUse" x1="417.0337" y1="-127.81" x2="417.0337" y2="-193.298">
	<stop  offset="0" style="stop-color:#FFFFFF;stop-opacity:0"/>
	<stop  offset="0.1464" style="stop-color:#FFFFFF;stop-opacity:0.1464"/>
	<stop  offset="1" style="stop-color:#FFFFFF"/>
</linearGradient>
<path class="st4" d="M440.2-178.4v50.6h-9.6l-25.2-30.7v30.7h-11.5v-50.6h9.7l25.1,30.7v-30.7H440.2z M419-183.1
	c-1-0.5-2.1-1.2-3.3-2.1c-0.8-0.6-1.4-1-1.9-1.3c-0.5-0.3-1-0.4-1.5-0.4c-1,0-1.8,0.4-2.5,1.1c-0.6,0.7-1,1.7-1,3h-5.7
	c0.1-3.2,0.9-5.8,2.4-7.7c1.5-1.9,3.6-2.8,6-2.8c1.3,0,2.3,0.3,3.3,0.8c1,0.5,2.1,1.2,3.3,2.1c0.8,0.6,1.4,1,1.9,1.3
	c0.5,0.3,1,0.4,1.5,0.4c1,0,1.8-0.4,2.4-1.1s1-1.6,1.1-2.8h5.7c-0.1,3.1-0.9,5.6-2.4,7.5c-1.5,1.8-3.6,2.8-6,2.8
	C421.1-182.3,420-182.6,419-183.1z"/>
<linearGradient id="SVGID_5_" gradientUnits="userSpaceOnUse" x1="473.8465" y1="-127.8814" x2="473.8465" y2="-178.4371">
	<stop  offset="0" style="stop-color:#FFFFFF;stop-opacity:0"/>
	<stop  offset="0.1464" style="stop-color:#FFFFFF;stop-opacity:0.1464"/>
	<stop  offset="1" style="stop-color:#FFFFFF"/>
</linearGradient>
<path class="st5" d="M485.5-138.7H462l-4.5,10.8h-12l22.5-50.6h11.5l22.6,50.6h-12.3L485.5-138.7z M481.8-147.6l-8-19.3l-8,19.3
	H481.8z"/>
<linearGradient id="SVGID_6_" gradientUnits="userSpaceOnUse" x1="532.8637" y1="-127.8816" x2="532.8637" y2="-178.3658">
	<stop  offset="0" style="stop-color:#FFFFFF;stop-opacity:0"/>
	<stop  offset="0.1464" style="stop-color:#FFFFFF;stop-opacity:0.1464"/>
	<stop  offset="1" style="stop-color:#FFFFFF"/>
</linearGradient>
<path class="st6" d="M507.4-178.4h23c5.5,0,10.3,1.1,14.6,3.1c4.2,2.1,7.5,5,9.8,8.8c2.3,3.8,3.5,8.2,3.5,13.3s-1.1,9.5-3.5,13.3
	c-2.3,3.8-5.6,6.8-9.8,8.8c-4.2,2.1-9,3.1-14.6,3.1h-23V-178.4z M529.8-137.4c5,0,9.1-1.4,12.1-4.2c3-2.8,4.5-6.6,4.5-11.4
	c0-4.8-1.5-8.6-4.5-11.4c-3-2.8-7-4.2-12.1-4.2h-10.7v31.4L529.8-137.4L529.8-137.4z"/>
<linearGradient id="SVGID_7_" gradientUnits="userSpaceOnUse" x1="588.0411" y1="-127.8814" x2="588.0411" y2="-178.4371">
	<stop  offset="0" style="stop-color:#FFFFFF;stop-opacity:0"/>
	<stop  offset="0.1464" style="stop-color:#FFFFFF;stop-opacity:0.1464"/>
	<stop  offset="1" style="stop-color:#FFFFFF"/>
</linearGradient>
<path class="st7" d="M599.7-138.7h-23.5l-4.5,10.8h-12l22.5-50.6h11.5l22.6,50.6h-12.3L599.7-138.7z M596-147.6l-8-19.3l-8,19.3H596
	z"/>
</svg>
