<?xml version="1.0" encoding="utf-8"?>
<!-- Generator: Adobe Illustrator 22.1.0, SVG Export Plug-In . SVG Version: 6.00 Build 0)  -->
<svg version="1.1" id="Capa_1" xmlns="http://www.w3.org/2000/svg" xmlns:xlink="http://www.w3.org/1999/xlink" x="0px" y="0px"
	 viewBox="0 0 600 600" style="enable-background:new 0 0 600 600;" xml:space="preserve">
<style type="text/css">
	.st0{fill:#FFFFFF;}
</style>
<g>
	<path class="st0" d="M496.3,384.9v25.6H385.4v-51.2h57.5c-5.1-29-19-55.7-40.2-77c-27.4-27.4-63.8-42.5-102.6-42.5
		s-75.2,15.1-102.6,42.5c-27.4,27.4-42.5,63.8-42.5,102.6v145.1h119.5V299.6h51.2v281.6H103.8V384.9c0-52.4,20.4-101.7,57.5-138.8
		c31.3-31.3,71.3-50.8,114.6-56c5.3-43.3,24.7-83.3,56-114.6c0.7-0.8,1.5-1.5,2.3-2.2c-11.1-2.7-22.6-4.1-34.1-4.1
		c-38.8,0-75.2,15.1-102.6,42.5c-27.4,27.4-42.5,63.8-42.5,102.6h-51.2c0-52.4,20.4-101.7,57.5-138.8c37-37.1,86.3-57.5,138.8-57.5
		c34.5,0,68.4,9.1,98.1,26.3l38.3,22.2l-38.3,22.2c-11,6.3-21.1,14.1-30.1,23.1c-21.7,21.7-35.7,49.1-40.6,78.9
		c42,5.8,80.8,25.1,111.3,55.6C475.9,283.2,496.3,332.5,496.3,384.9z"/>
</g>
</svg>
